<?xml version="1.0" encoding="utf-8" standalone="no"?>
<!DOCTYPE svg PUBLIC "-//W3C//DTD SVG 1.1//EN"
  "http://www.w3.org/Graphics/SVG/1.1/DTD/svg11.dtd">
<svg xmlns:xlink="http://www.w3.org/1999/xlink" width="416.16pt" height="335.952pt" viewBox="0 0 416.16 335.952" xmlns="http://www.w3.org/2000/svg" version="1.1">
 <metadata>
  <rdf:RDF xmlns:dc="http://purl.org/dc/elements/1.1/" xmlns:cc="http://creativecommons.org/ns#" xmlns:rdf="http://www.w3.org/1999/02/22-rdf-syntax-ns#">
   <cc:Work>
    <dc:type rdf:resource="http://purl.org/dc/dcmitype/StillImage"/>
    <dc:date>2026-10-04T14:31:20.208356</dc:date>
    <dc:format>image/svg+xml</dc:format>
    <dc:creator>
     <cc:Agent>
      <dc:title>Matplotlib v3.10.8, https://matplotlib.org/</dc:title>
     </cc:Agent>
    </dc:creator>
   </cc:Work>
  </rdf:RDF>
 </metadata>
 <defs>
  <style type="text/css">*{stroke-linejoin: round; stroke-linecap: butt}</style>
 </defs>
 <g id="figure_1">
  <g id="patch_1">
   <path d="M 0 335.952 
L 416.16 335.952 
L 416.16 0 
L 0 0 
z
" style="fill: #ffffff"/>
  </g>
  <g id="axes_1">
   <g id="patch_2">
    <path d="M 16.03872 83.729376 
L 126.92448 83.729376 
Q 130.94208 83.729376 130.94208 80.513856 
L 130.94208 36.782784 
Q 130.94208 33.567264 126.92448 33.567264 
L 16.03872 33.567264 
Q 12.02112 33.567264 12.02112 36.782784 
L 12.02112 80.513856 
Q 12.02112 83.729376 16.03872 83.729376 
z
" clip-path="url(#pd6f3d26291)" style="fill: #edf4f7; stroke: #70929d; stroke-width: 0.7; stroke-linejoin: miter"/>
   </g>
   <g id="patch_3">
    <path d="M 156.65472 83.729376 
L 267.54048 83.729376 
Q 271.55808 83.729376 271.55808 80.513856 
L 271.55808 36.782784 
Q 271.55808 33.567264 267.54048 33.567264 
L 156.65472 33.567264 
Q 152.63712 33.567264 152.63712 36.782784 
L 152.63712 80.513856 
Q 152.63712 83.729376 156.65472 83.729376 
z
" clip-path="url(#pd6f3d26291)" style="fill: #edf4f7; stroke: #70929d; stroke-width: 0.7; stroke-linejoin: miter"/>
   </g>
   <g id="patch_4">
    <path d="M 297.27072 83.729376 
L 400.12128 83.729376 
Q 404.13888 83.729376 404.13888 80.513856 
L 404.13888 36.782784 
Q 404.13888 33.567264 400.12128 33.567264 
L 297.27072 33.567264 
Q 293.25312 33.567264 293.25312 36.782784 
L 293.25312 80.513856 
Q 293.25312 83.729376 297.27072 83.729376 
z
" clip-path="url(#pd6f3d26291)" style="fill: #edf4f7; stroke: #70929d; stroke-width: 0.7; stroke-linejoin: miter"/>
   </g>
   <g id="patch_5">
    <path d="M 16.03872 202.703616 
L 199.24128 202.703616 
Q 203.25888 202.703616 203.25888 199.488096 
L 203.25888 142.894944 
Q 203.25888 139.679424 199.24128 139.679424 
L 16.03872 139.679424 
Q 12.02112 139.679424 12.02112 142.894944 
L 12.02112 199.488096 
Q 12.02112 202.703616 16.03872 202.703616 
z
" clip-path="url(#pd6f3d26291)" style="fill: #edf4f7; stroke: #70929d; stroke-width: 0.7; stroke-linejoin: miter"/>
   </g>
   <g id="patch_6">
    <path d="M 220.93632 202.703616 
L 400.12128 202.703616 
Q 404.13888 202.703616 404.13888 199.488096 
L 404.13888 142.894944 
Q 404.13888 139.679424 400.12128 139.679424 
L 220.93632 139.679424 
Q 216.91872 139.679424 216.91872 142.894944 
L 216.91872 199.488096 
Q 216.91872 202.703616 220.93632 202.703616 
z
" clip-path="url(#pd6f3d26291)" style="fill: #edf4f7; stroke: #70929d; stroke-width: 0.7; stroke-linejoin: miter"/>
   </g>
   <g id="patch_7">
    <path d="M 16.03872 310.423536 
L 400.12128 310.423536 
Q 404.13888 310.423536 404.13888 307.208016 
L 404.13888 260.261424 
Q 404.13888 257.045904 400.12128 257.045904 
L 16.03872 257.045904 
Q 12.02112 257.045904 12.02112 260.261424 
L 12.02112 307.208016 
Q 12.02112 310.423536 16.03872 310.423536 
z
" clip-path="url(#pd6f3d26291)" style="fill: #f2f5ef; stroke: #70929d; stroke-width: 0.7; stroke-linejoin: miter"/>
   </g>
   <g id="text_1">
    <text style="font-weight: 700; font-size: 11px; font-family: 'DejaVu Sans'; text-anchor: start" x="7.2" y="15.558281" transform="rotate(-0 7.2 15.558281)">a  Source-mapped gene support</text>
   </g>
   <g id="text_2">
    <text style="font-size: 9px; font-family: 'DejaVu Sans'" transform="translate(20.202694 55.066953)">11 non-HCC liver traits</text>
    <text style="font-size: 9px; font-family: 'DejaVu Sans'" transform="translate(17.802928 67.196562)">Fixed source cis records</text>
   </g>
   <g id="text_3">
    <text style="font-size: 9px; font-family: 'DejaVu Sans'" transform="translate(158.939241 55.066953)">Aggregated input ranks</text>
    <text style="font-size: 9px; font-family: 'DejaVu Sans'" transform="translate(159.372366 67.196562)">Top 5% defines support</text>
   </g>
   <g id="text_4">
    <text style="font-size: 9px; font-family: 'DejaVu Sans'" transform="translate(308.501156 55.066953)">56 seed identities</text>
    <text style="font-size: 9px; font-family: 'DejaVu Sans'" transform="translate(328.362328 67.196562)">excluded</text>
   </g>
   <g id="patch_8">
    <path d="M 129.729444 58.64832 
Q 141.790667 58.64832 152.733857 58.64832 
" style="fill: none; stroke: #286782; stroke-linecap: round"/>
    <path d="M 149.133857 56.84832 
L 152.733857 58.64832 
L 149.133857 60.44832 
" style="fill: none; stroke: #286782; stroke-linecap: round"/>
   </g>
   <g id="patch_9">
    <path d="M 270.345444 58.64832 
Q 282.406667 58.64832 293.349857 58.64832 
" style="fill: none; stroke: #286782; stroke-linecap: round"/>
    <path d="M 289.749857 56.84832 
L 293.349857 58.64832 
L 289.749857 60.44832 
" style="fill: none; stroke: #286782; stroke-linecap: round"/>
   </g>
   <g id="text_5">
    <text style="font-size: 9px; font-family: 'DejaVu Sans'; text-anchor: middle; fill: #485c64" x="208.08" y="97.23456" transform="rotate(-0 208.08 97.23456)">Mapped input ≠ significant eQTL link or effector-gene assignment</text>
   </g>
   <g id="text_6">
    <text style="font-weight: 700; font-size: 11px; font-family: 'DejaVu Sans'; text-anchor: start" x="7.2" y="128.101481" transform="rotate(-0 7.2 128.101481)">b  Distinct analysis populations</text>
   </g>
   <g id="text_7">
    <text style="font-size: 9px; font-family: 'DejaVu Sans'" transform="translate(35.417813 161.545348)">Conditional breadth comparison</text>
    <text style="font-size: 9px; font-family: 'DejaVu Sans'" transform="translate(27.666563 173.674957)">1652 genes → 1259 after masking</text>
    <text style="font-size: 9px; font-family: 'DejaVu Sans'" transform="translate(36.520313 185.804567)">≥4 versus 1–3 supporting traits</text>
   </g>
   <g id="text_8">
    <text style="font-size: 9px; font-family: 'DejaVu Sans'" transform="translate(265.104113 161.545348)">Selected input audit</text>
    <text style="font-size: 9px; font-family: 'DejaVu Sans'" transform="translate(234.446456 173.674957)">283 genes · 1465 support events</text>
    <text style="font-size: 9px; font-family: 'DejaVu Sans'" transform="translate(246.39255 185.804567)">3224 within-gene trait pairs</text>
   </g>
   <g id="text_9">
    <text style="font-size: 9px; font-family: 'DejaVu Sans'; text-anchor: middle; fill: #485c64" x="208.08" y="216.2088" transform="rotate(-0 208.08 216.2088)">HCC association is assessed separately in European and East Asian data</text>
   </g>
   <g id="text_10">
    <text style="font-weight: 700; font-size: 11px; font-family: 'DejaVu Sans'; text-anchor: start" x="7.2" y="247.075721" transform="rotate(-0 7.2 247.075721)">c  Seed-gene-body membership mask (Rule A)</text>
   </g>
   <g id="text_11">
    <text style="font-size: 9px; font-family: 'DejaVu Sans'" transform="translate(16.832109 274.088548)">Exclude the entire gene if its TSS OR any frozen mapped input overlaps a seed body.</text>
    <text style="font-size: 9px; font-family: 'DejaVu Sans'" transform="translate(66.202031 286.218157)">Retain the existing support flags, scores and global HCC ranks.</text>
    <text style="font-size: 9px; font-family: 'DejaVu Sans'" transform="translate(25.588828 298.347767)">Compare populations; do not attribute the change to a causal input contribution.</text>
   </g>
  </g>
 </g>
 <defs>
  <clipPath id="pd6f3d26291">
   <rect x="7.2" y="7.2" width="401.76" height="321.552"/>
  </clipPath>
 </defs>
</svg>
